<?xml version="1.0" encoding="utf-8"?>
<!-- Generator: Adobe Illustrator 25.4.1, SVG Export Plug-In . SVG Version: 6.00 Build 0)  -->
<svg version="1.1" id="Layer_1" xmlns="http://www.w3.org/2000/svg" xmlns:xlink="http://www.w3.org/1999/xlink" x="0px" y="0px"
	 viewBox="0 0 452.65 452.65" style="enable-background:new 0 0 452.65 452.65;" xml:space="preserve">
<style type="text/css">
	.st0{fill:url(#SVGID_1_);}
	.st1{opacity:0.5;fill:#F9F9F9;}
	.st2{opacity:0.5;}
	.st3{opacity:0.5;fill:#D8D8D8;}
	.st4{fill:none;stroke:#000000;stroke-width:6;stroke-miterlimit:10;}
	.st5{fill:none;stroke:#000000;stroke-width:6;stroke-miterlimit:10;stroke-dasharray:7.8332,7.8332;}
	.st6{fill:none;stroke:#000000;stroke-width:6;stroke-miterlimit:10;stroke-dasharray:7.7823,7.7823;}
	.st7{opacity:0.1;}
</style>
<linearGradient id="SVGID_1_" gradientUnits="userSpaceOnUse" x1="339.5107" y1="30.2887" x2="113.147" y2="422.3623">
	<stop  offset="0.3976" style="stop-color:#468BFF"/>
	<stop  offset="1" style="stop-color:#463BD2"/>
</linearGradient>
<path class="st0" d="M452.65,226.33c0,2.6-0.04,5.2-0.14,7.78c-4.09,121.39-103.78,218.54-226.18,218.54
	c-121.65,0-220.88-95.97-226.11-216.31c0-0.01,0-0.01,0-0.01c-0.15-3.32-0.22-6.65-0.22-10c0-38.57,9.65-74.88,26.66-106.66
	c2.66-4.96,5.49-9.81,8.49-14.54c0.04-0.06,0.07-0.11,0.11-0.17c0.35-0.55,0.7-1.1,1.06-1.65c0.72-1.11,1.45-2.21,2.18-3.3
	c0.54-0.79,1.08-1.58,1.62-2.36c0.57-0.82,1.14-1.63,1.72-2.45c1.15-1.62,2.33-3.23,3.53-4.82c0.59-0.79,1.19-1.58,1.8-2.36
	c0.61-0.79,1.23-1.58,1.85-2.36c1.18-1.49,2.38-2.96,3.59-4.41h0.01c0,0,0.01-0.01,0.02-0.02l0.06-0.06
	C94.19,31.55,156.58,0,226.33,0c65.73,0,124.91,28.02,166.26,72.76c2.5,2.71,4.94,5.47,7.3,8.3c0.01,0,0.01,0.01,0.01,0.01
	c0.66,0.79,1.31,1.58,1.95,2.37h0.01c0.72,0.89,1.44,1.78,2.15,2.68c0.71,0.9,1.42,1.81,2.11,2.72c0.04,0.05,0.08,0.1,0.12,0.15
	c0.66,0.86,1.31,1.72,1.95,2.6c0.69,0.92,1.37,1.84,2.03,2.78c1.29,1.78,2.54,3.58,3.77,5.4c0.61,0.89,1.21,1.8,1.8,2.7
	c0.34,0.52,0.69,1.05,1.02,1.58c0.38,0.58,0.75,1.16,1.12,1.75C439.92,140.7,452.65,182.03,452.65,226.33z"/>
<path class="st1" d="M452.65,226.33c0,0-18.08-52.69-226.32-52.69c-205,0-225.72,52.51-226.32,54.15C0,227.3,0,226.82,0,226.33
	c0-38.57,9.65-74.88,26.66-106.66c6.44-12.03,13.93-23.41,22.36-34.01c0,0,6.66,32.46,177.31,32.46
	c170.64,0,175.52-34.68,175.52-34.68h0.01C433.61,122.4,452.65,172.14,452.65,226.33z"/>
<g class="st2">
	<path d="M240.91,130.96h5.6v10.2c1.44-1.88,3.92-3.08,6.88-3.08c5,0,8.64,3.36,8.64,9.48v13h-5.6v-12.24
		c0-3.56-1.96-5.48-4.92-5.48c-3.04,0-5,1.92-5,5.48v12.24h-5.6V130.96z"/>
</g>
<path class="st3" d="M452.65,226.33c0,2.6-0.04,5.2-0.14,7.78c-1.91,4.62-26.55,52.6-226.18,52.6
	c-207.98,0-225.82-49.54-226.11-50.37c0-0.01,0-0.01,0-0.01c-0.13-2.83-0.2-5.67-0.21-8.52c0-0.01,0-0.01,0-0.02
	c0.6-1.64,21.32-54.15,226.32-54.15C434.57,173.64,452.65,226.33,452.65,226.33z"/>
<g class="st2">
	<path d="M131.17,196.11c6.72,0,10.08,3.88,10.08,8.56c0,3.4-1.88,6.84-6.36,8.04l6.68,11.32h-6.48l-6.16-10.88h-2.64v10.88h-5.6
		v-27.92H131.17z M130.97,200.75h-4.68v8.2h4.68c3.12,0,4.52-1.64,4.52-4.16C135.49,202.31,134.09,200.75,130.97,200.75z"/>
</g>
<g class="st2">
	<g>
		<line class="st4" x1="226.33" y1="83.44" x2="226.33" y2="87.44"/>
		<line class="st5" x1="226.33" y1="95.27" x2="226.33" y2="216.69"/>
		<polyline class="st4" points="226.33,220.6 226.33,224.6 222.37,225.22 		"/>
		<line class="st6" x1="214.68" y1="226.43" x2="34.01" y2="254.76"/>
		<line class="st4" x1="30.16" y1="255.36" x2="26.21" y2="255.98"/>
	</g>
</g>
<path class="st7" d="M401.85,83.44c0,0-4.88,34.68-175.52,34.68c-170.65,0-177.31-32.46-177.31-32.46c1.18-1.49,2.38-2.96,3.59-4.41
	h0.01c0,0,0.01-0.01,0.02-0.02l0.06-0.06c1.69-1.65,31.19-28.18,173.63-28.18c139.94,0,170.91,25.61,173.56,28.07
	c0.01,0,0.01,0.01,0.01,0.01C400.56,81.86,401.21,82.65,401.85,83.44z"/>
<path d="M413.99,99.77c-1.23-1.82-2.48-3.62-3.77-5.4C411.51,96.15,412.77,97.95,413.99,99.77z"/>
</svg>
